<svg xmlns="http://www.w3.org/2000/svg" version="1.1" xmlns:xlink="http://www.w3.org/1999/xlink" width="512" height="512" x="0" y="0" viewBox="0 0 64 64" style="enable-background:new 0 0 512 512" xml:space="preserve" class=""><g><path d="M24.58 9.74v5.84h-2.01c-1.65 0-3 1.35-3 3v7.82h-4.3c-1.57 0-2.85 1.28-2.85 2.85v9.62h-.71c-1.65 0-3 1.35-3 3v13.82c-1 .49-1.7 1.51-1.7 2.69V59c0 1.65 1.35 3 3 3h43.98c1.65 0 3-1.35 3-3v-.62c0-1.07-.57-2.01-1.42-2.54.05-.12.08-.25.08-.39V39.81c0-1.65-1.35-3-3-3h-2.63V21.09c0-1.57-1.28-2.85-2.85-2.85h-5.61v-8.5c0-1.57-1.28-2.85-2.85-2.85h-.31c.11-.31.18-.65.18-1V5c0-1.65-1.35-3-3-3h-4.9c-1.65 0-3 1.35-3 3v.89c0 .35.07.68.18 1h-.46c-1.57 0-2.85 1.28-2.85 2.85zm-3.01 8.84c0-.55.45-1 1-1h2.01v37.8h-3.01zm-7.14 10.67c0-.47.38-.85.85-.85h4.3v26.98h-1.59V41.86c0-1.65-1.35-3-3-3h-.55v-9.62zm-3.71 12.62c0-.55.45-1 1-1h3.27c.55 0 1 .45 1 1v2.98h-5.27zm0 4.98h5.27v2.72h-5.27zm0 4.72h5.27v3.81h-5.27zM55 58.38V59c0 .55-.45 1-1 1H10.01c-.55 0-1-.45-1-1v-.62c0-.55.45-1 1-1h43.98c.55 0 1 .45 1 1zm-2.34-19.56c.55 0 1 .45 1 1v14.64h-7.94V39.82c0-.55.45-1 1-1zm-5.48-18.57c.47 0 .85.38.85.85v15.72h-1.31c-1.55 0-2.81 1.18-2.97 2.69h-4.79c-.55 0-1 .45-1 1s.45 1 1 1h4.76v3.03h-4.76c-.55 0-1 .45-1 1s.45 1 1 1h4.76v3.03h-4.76c-.55 0-1 .45-1 1s.45 1 1 1h4.76v3.81h-7.64V21.1c0-.47.38-.85.85-.85zM29.7 5c0-.55.45-1 1-1h4.9c.55 0 1 .45 1 1v.89a1 1 0 0 1-.99 1h-4.92c-.55 0-.99-.45-.99-1zm.98 3.89h8.04c.47 0 .85.38.85.85v8.52h-2.65c-1.57 0-2.85 1.28-2.85 2.85v34.27h-7.49V9.74c0-.47.38-.85.85-.85zm7.28 16.51c0-.55.45-1 1-1h6.68c.55 0 1 .45 1 1s-.45 1-1 1h-6.68c-.55 0-1-.45-1-1zm0 5.03c0-.55.45-1 1-1h6.68c.55 0 1 .45 1 1s-.45 1-1 1h-6.68c-.55 0-1-.45-1-1zm0 5.03c0-.55.45-1 1-1h6.68c.55 0 1 .45 1 1s-.45 1-1 1h-6.68c-.55 0-1-.45-1-1z" fill="#121954" opacity="1" data-original="#000000" class=""></path></g></svg>