<svg xmlns="http://www.w3.org/2000/svg" version="1.1" xmlns:xlink="http://www.w3.org/1999/xlink" width="512" height="512" x="0" y="0" viewBox="0 0 128 128" style="enable-background:new 0 0 512 512" xml:space="preserve" class=""><g><g fill="#363436"><path d="M27 33h62a1 1 0 0 0 0-2H27a1 1 0 0 0 0 2zM98 38a1 1 0 0 0-1-1H27a1 1 0 0 0 0 2h70a1 1 0 0 0 1-1zM84 44a1 1 0 0 0-1-1H27a1 1 0 0 0 0 2h56a1 1 0 0 0 1-1z" fill="#121954" opacity="1" data-original="#363436" class=""></path><path d="M98 121H23a3 3 0 0 1-3-3V10a3 3 0 0 1 3-3h82a3 3 0 0 1 3 3v84a1 1 0 0 0 2 0V10a5 5 0 0 0-5-5H23a5 5 0 0 0-5 5v108a5 5 0 0 0 5 5h75a1 1 0 0 0 0-2z" fill="#121954" opacity="1" data-original="#363436" class=""></path><path d="M27 15h12a1 1 0 0 0 0-2H27a1 1 0 0 0 0 2zM49 15a1 1 0 0 0 0-2h-4a1 1 0 0 0 0 2zM102 14a1 1 0 0 0-1-1h-4a1 1 0 0 0 0 2h4a1 1 0 0 0 1-1zM125.71 125.29l-8.26-8.29a11 11 0 1 0-1.42 1.42l8.26 8.26a1 1 0 0 0 1.42 0 1 1 0 0 0 0-1.39zM100 110a9 9 0 1 1 9 9 9 9 0 0 1-9-9zM52 87h-6a1 1 0 0 0-1 1v10a1 1 0 0 0 1 1h6a1 1 0 0 0 1-1V88a1 1 0 0 0-1-1zm-1 2v3h-4v-3zm-4 8v-3h4v3zM71 73v9h-1a1 1 0 0 0 0 2h10a1 1 0 0 0 0-2h-1v-9a4 4 0 0 0-8 0zm2 9v-5h4v5zm4-9v2h-4v-2a2 2 0 0 1 4 0z" fill="#121954" opacity="1" data-original="#363436" class=""></path><path d="M42 106h42a1 1 0 0 0 1-1V71.41l1.79 1.8a1 1 0 0 0 1.42 0l3-3a1 1 0 0 0 0-1.42l-15.5-15.5a1 1 0 0 0-1.42 0L67.59 60H57v-1h1a1 1 0 0 0 1-1v-4a1 1 0 0 0-1-1H48a1 1 0 0 0-1 1v4a1 1 0 0 0 1 1h1v1h-4a1 1 0 0 0-.81.42l-5 7A1 1 0 0 0 40 69h4v6h-2a1 1 0 0 0-.81.42l-5 7A1 1 0 0 0 37 84h4v21a1 1 0 0 0 1 1zm1-22h22v20H43zm29 16h1a1 1 0 0 0 0-2h-1v-5h6v11h-6zm11 4h-3V92a1 1 0 0 0-1-1h-8a1 1 0 0 0-1 1v12h-3V69.41l8-8 8 8zm-8-48.59L89.09 69.5l-1.59 1.59-11.79-11.8a1 1 0 0 0-1.42 0L62.5 71.09l-1.59-1.59 7.8-7.79zM49 55h8v2h-8zm-3.49 7H49v1a1 1 0 0 0 2 0v-4h4v4a1 1 0 0 0 2 0v-1h8.59l-5 5H41.94zm.49 7h12.66a1 1 0 0 0 .13 1.21l3 3a1 1 0 0 0 1.42 0l1.79-1.8V75H46zm-3.49 8H65v5H38.94z" fill="#121954" opacity="1" data-original="#363436" class=""></path><path d="M62 87h-6a1 1 0 0 0-1 1v10a1 1 0 0 0 1 1h6a1 1 0 0 0 1-1V88a1 1 0 0 0-1-1zm-1 2v3h-4v-3zm-4 8v-3h4v3z" fill="#121954" opacity="1" data-original="#363436" class=""></path></g></g></svg>