<svg width="388" height="730" viewBox="0 0 388 730" fill="none" xmlns="http://www.w3.org/2000/svg">
<g clip-path="url(#clip0_85_5)">
<path d="M164.667 3.19999C122.533 10.2667 87.8667 28 58 58C30.4 85.4667 13.8667 115.867 5.06666 154.8L1.99999 168.667V364.667C1.99999 584 1.33333 568.133 11.6 598C31.6 655.867 78 701.2 136 719.733C155.467 725.867 172.533 728.4 194.667 728.4C226.533 728.4 250.8 722.8 279.6 708.667C334.933 681.6 372.133 632.533 384.933 570C387.2 558.667 387.333 546.533 387.333 365.333C387.333 150.4 387.867 163.2 378 133.867C356.4 69.0667 304.133 21.4667 237.733 5.86665C219.867 1.59999 182.133 0.266653 164.667 3.19999ZM229.6 25.3333C289.2 37.4667 339.467 82.6667 358.533 141.067C366.933 166.667 366.667 159.333 366.667 365.333C366.667 569.333 366.933 562.4 359.2 586.933C342.933 638.933 300.667 682 249.067 699.2C230.267 705.467 218.267 707.333 194.667 707.333C181.2 707.333 169.067 706.667 163.333 705.467C95.2 692 43.2 642.133 26.1333 574C21.4667 555.333 21.2 539.867 21.6 354.667L22.1333 172.667L25.0667 159.733C33.0667 124.667 48.1333 97.2 72.6667 72.6667C101.733 43.6 135.2 27.7333 178.667 22.1333C188.4 20.9333 216.4 22.6667 229.6 25.3333Z" fill="white"/>
<path d="M44.2667 366.933L44.6667 562L48.4 573.867C57.6 603.333 67.8667 621.067 86.5333 640.533C117.867 672.8 156.933 688.267 201.867 686.267C239.867 684.667 273.867 669.867 300.667 643.333C318.667 625.467 331.333 604.933 339.067 580.667C346.133 559.067 345.733 580.667 345.333 229.6V171.867L334.533 172.267L323.733 172.667L298.267 229.733L272.8 286.667L194.933 286.4L116.933 286L91.6 228.933L66.2667 172H55.0667H44L44.2667 366.933ZM82 253.867C89.7333 271.067 96 285.6 96 286C96 286.4 88.8 286.667 80 286.667H64V250.933C64.1333 219.333 64.2667 215.733 66 218.8C67.0667 220.8 74.2667 236.533 82 253.867ZM324.933 286.267C324.533 286.533 317.467 286.533 308.933 286.4L293.467 286L306.8 256C314.133 239.467 321.2 223.867 322.4 221.333C324.533 216.8 324.667 217.733 325.067 251.2C325.2 270.133 325.2 286 324.933 286.267ZM106.533 308.933C107.467 311.067 125.333 350.8 146.133 397.467L184 482.133V573.733V665.333H180.133C173.467 665.333 150.4 658.8 140.4 654.133C104.667 637.2 78.2667 605.2 68.6667 567.733L65.4667 554.8L64.5333 430L63.6 305.333H84.2667H104.933L106.533 308.933ZM184 370.267C184 405.867 183.733 434.8 183.467 434.533C183.2 434.267 170 405.067 154.267 369.6L125.6 305.333H154.8H184V370.267ZM264 306C264 306.267 250.8 336.133 234.667 372.267L205.333 438V371.6V305.333H234.667C250.8 305.333 264 305.6 264 306ZM325.067 430.267L324.667 555.333L321.067 568C313.2 596.8 298.667 619.2 276.667 636.8C258.667 651.333 233.2 662.533 213.6 664.8L205.333 665.733V574.8V483.867L245.067 394.667L284.667 305.333H305.067H325.467L325.067 430.267Z" fill="white"/>
<path d="M362 2.66665C354.533 5.73332 349.733 15.8667 352 24C356.267 39.6 378.133 42.1333 385.467 27.7333C386.8 25.0667 388 21.2 388 19.2C388 13.8667 384 6.66665 379.467 3.86665C375.2 1.19999 366.667 0.666653 362 2.66665ZM375.2 4.53332C389.2 10.4 388.533 29.8667 374.133 34.6667C364.667 37.7333 353.333 29.4667 353.333 19.4667C353.333 13.7333 357.867 6.93332 363.067 4.66665C368.533 2.26665 369.733 2.26665 375.2 4.53332Z" fill="white"/>
<path d="M362.667 19.3333C362.667 25.0666 363.2 29.3333 364 29.3333C364.8 29.3333 365.333 27.4666 365.333 25.3333C365.333 20.1333 368 20.1333 370.933 25.3333C374 30.8 376.667 30.5333 373.867 25.0666C371.867 21.3333 371.867 20.8 373.867 19.7333C376.4 18.2666 376.667 13.2 374.4 10.9333C373.467 9.99998 370.533 9.33331 367.733 9.33331H362.667V19.3333ZM372.667 15.3333C372.667 17.2 371.6 18.1333 369.067 18.4C365.867 18.8 365.333 18.4 365.333 15.3333C365.333 12.2666 365.867 11.8666 369.067 12.2666C371.6 12.5333 372.667 13.4666 372.667 15.3333Z" fill="white"/>
</g>
<defs>
<clipPath id="clip0_85_5">
<rect width="388" height="729.333" fill="white"/>
</clipPath>
</defs>
</svg>
